<?xml version="1.0" encoding="utf-8"?>

<!DOCTYPE svg PUBLIC "-//W3C//DTD SVG 1.1//EN" "http://www.w3.org/Graphics/SVG/1.1/DTD/svg11.dtd">
<svg version="1.1" id="Layer_1" xmlns="http://www.w3.org/2000/svg" xmlns:xlink="http://www.w3.org/1999/xlink" x="0px" y="0px"
	 viewBox="0 0 698 1684" enable-background="new 0 0 698 1684" xml:space="preserve">
<path d="M643.101,240.292c-5.098-5.445-56.256-28.541-56.574-28.779c-0.347-0.07-0.678-0.156-0.996-0.258
	c-45.065-21.325-110.777-38.183-111.095-38.282c-17.786-3.558-23.677-10.717-30.584-12.301c-1.972-0.61-1.298,0.725-5.721-6.042
	c-4.243-8.161-8.217-22.202-8.595-23.889c-5.99-19.495-9.379-31.837-9.379-52.086c0.003-1.41-0.624-2.699-1.031-4.017
	c-1.449-1.573-0.475-1.78-1.716-9.719c-0.974-2.664,0.151-5.164-1.041-10.751c0.029-1.563-0.662-3.031-0.599-4.591
	c0.414-1.318,0.414-2.894,0.01-4.212c0.045-1.289-0.624-2.413-1.445-3.349c-1.554-0.156-2.817,0.821-3.973,1.706
	c-1.152,0.949-1.557,2.435-1.964,3.804c-0.5-0.261-0.965-0.576-1.273-1.05c-0.512-0.787-3.869-3.534-4.719-0.787
	c-0.67,2.165-1.151,4.379-1.692,6.578c-0.254,1.032-0.357,3.392-1.041,4.231c0,0-1.195,5.666-1.673,7.55
	c-0.534,2.103-1.672,4.375-1.957,6.505c-0.989,7.386-3.202,4.362-4.75,15.475c-1.264,17.962-5.694,26.75-5.944,27.486
	c-3.583,9.758-8.741,34.864-19.413,48.44c-0.752,0.887-4.596,1.31-7.765,3.015c-6.348,3.145-8.493,7.192-23.413,12.996
	c-99.254,38.611-158.746,82.693-162.297,88.491c-3.483,2.886-5.048,2.162,2.742,33.322c0.917,2.534,2.196,4.88,2.948,7.498
	c5.038,17.54-5.004-3.195,23.083,77.94c18.038,52.105,29.378,58.46,48.266,98.162c3.392,7.152,6.457,14.454,9.905,21.58
	c13.795,28.511,14.546,11.982,26.999,62.287c2.654,10.723,1.703,10.303,5.484,16.892c4.615,8.042,2.572,7.78,2.773,12.931
	c0.169,4.346,3.732,5.338,7.368,15.309c1.375,3.771,3.353,13.527,3.432,13.845c-0.045,1.196,8.001,27.501,8.097,27.821
	c2.241,7.461,11.203,30.887,14.4,86.614c1.567,27.319,0.916,20.94-13.108,60.787c-3.202,9.098-2.397,21.889-2.032,30.089
	c0.267,5.988-1.066,6.123-3.179,9.001c-2.593,3.531-4.301,7.78-6.245,11.697c-3.286,6.624,2.982,7.972,3.072,10.946
	c0.119,3.918-4.326,3.465-6.505,4.409c-1.614,0.699-2.263,2.466-3.666,3.414c-4.593,3.671-7.506,8.458-9.299,10.865
	c-2.764,0.148-11.38,8.615-12.849,10.318c-4.331,5.609-25.933,12.912-55.963,31.3c-43.66,27.211-108.419,80.911-120.639,92.631
	c-6.078,4.225-29.243,29.019-29.562,29.304c-12.988,14.009-17.166,22.027-16.985,46.351c0.014,1.902,0.307,3.833,0.24,5.741
	c0.536,1.37,0.731,5.568,6.698,13.536c7.202,12.304,29.564,20.454,33.532,22.915c0.156,0.019,0.471,0.057,0.627,0.076
	c17.236,9.141,33.671,8.578,51.251,15.02c0.321,0.123,11.23,4.324,11.795,4.623c1.286,0.273,1.77,0.519,2.531,0.945
	c1.165,0.065,3.622,1.401,5.412,1.722c5.125,2.717,58.27,17.239,58.589,17.331c6.898,2.16,7.864,4.504,11.499,5.021
	c2.846,0.43,9.344,0.448,15.224,2.846c2.53,0.767,13.711,4.288,15.94,5.568c0.156,0.019,0.471,0.064,0.627,0.086
	c2.52,1.364,18.516,8.39,29.002,15.704c0.821,0.599,1.866,0.522,2.83,0.478c1.216-0.637,2.423-1.289,3.661-1.885
	c3.298,1.223,5.483,2.915,6.861,3.266c0.32,0.214,37.499,21.918,48.619,36.738c3.725,5.157,6.956,10.671,9.796,16.363
	c6.351,15.464,2.884,6.751,11.54,19.263c10.14,16.166,14.167,19.82,12.747,26.617c-0.047,0.231-0.521,6.878-0.522,6.883
	c-1.137,5.838,1.502,6.83,1.398,10.897c0.258,1.519,0.417,3.27,1.633,4.377c1.192,1.219,4.938,2.157,4.7,4.049
	c-0.104,0.823-0.504,1.662-0.231,2.446c0.605,1.735,3.737,1.409,4.248,3.173c0.391,1.349-0.655,1.341-3.267,9.34
	c-1.237,3.59,0.318,18.709,0.223,19.882c0.025,2.445-0.086,4.906,0.051,7.357c0.67,3.237-0.084,10.508-0.057,10.827
	c1.447,7.21-2.223,8.79-1.92,13.982c0.942,25.253-0.592,15.694-1.009,25.802c-0.52,1.611-0.858,13.546-1.06,14.409
	c-0.296,1.98-0.86,3.928-0.834,5.953c-0.525,1.703,0.097,5.823-1.77,9.703c-0.689,2.65-1.894,1.766-4.218,5.103
	c-0.013,0.618-0.016,1.248,0.003,1.897c2.711,5.347,6.357,6.958,7.682,12.734c0.567,0.71,0.853,1.741,0.337,2.582
	c0,0.002-1.63,6.058-1.63,6.058c-0.118,0.828,0.178,1.78-0.318,2.54c-0.083,0.834,0.111,1.751-0.29,2.547
	c-0.051,0.274-0.095,0.57-0.134,0.891c-0.015,0.029-1.167,4.338-1.235,4.807c-0.201,0.302-0.395,0.621-0.586,0.955
	c-0.013,0.159-0.038,0.474-0.051,0.634c-1.143,1.682-2.611,6.379-2.731,6.698c-3.557,8.99-3.578,6.201-8.038,14.319
	c-0.009,0.159-0.035,0.478-0.045,0.637c-0.204,0.299-0.404,0.615-0.598,0.949c-0.01,0.159-0.032,0.481-0.045,0.64
	c-0.534,0.819-1.516,3.379-1.63,3.836c-0.181,0.299-0.363,0.611-0.541,0.939c-0.003,0.796-0.08,1.611-0.337,2.391
	c-0.697,2.05-0.083,4.247-0.404,6.358c-0.264,0.86-0.267,1.767-0.287,2.677c-0.064,0.134-0.188,0.401-0.248,0.535
	c-0.01,3.553-0.379,7.083-0.71,10.611c-0.411,0.605-0.213,1.359-0.366,2.063c-2.358,10.248-2.221,2.636-2.442,15.017
	c0.02,0.319-0.906,6.925,0.08,10.302c0.072,0.148,2.059,9.497,2.251,11.477c-0.029,0.121-0.086,0.363-0.115,0.484
	c0.392,0.786,0.331,1.671,0.315,2.547c-0.07,1.222,0.42,2.394,0.376,3.636c0.396,0.592,0.311,10.092,0.309,10.41
	c0.483,1.535,0.494,7.156,0.882,8.274c0.63,1.853-0.745,3.537-0.627,5.38c-0.027,2.333,0.98,7.291,1.219,8.003
	c3.628,7.219,0.016,4.301,3.957,14.475c2.258,5.204,8.964,4.317,15.516,5.262c1.643,0.363,3.034-0.751,4.46-1.356
	c3.71-1.667,2.818-1.671,4.737-6.93c0.506-1.324-0.067-2.868,0.78-4.072c0.561-1.174,2.838-2.227,3.782,1.124
	c0.398,1.464,0.099,2.996,0.223,4.498c2.144,5.547,0.445,3.275,4.298,5.975c5.728,3.683,9.467-1.64,11.906-3.512
	c1.681-0.264,3.429,0.064,5.135-0.048c3.634-0.696,2.298-3.98,4.536-4.759c1.442-0.372,2.942,0.204,4.403-0.156
	c1.219,0.048,1.958-1.038,2.69-1.837c0.584-1.343-0.424-4.347,1.754-4.438c5.197-0.779,7.588,1.017,8.701-0.707
	c2.08-5.072,0.072-15.544-11.587-25.526c-2.931-2.509,1.48-0.902-14.069-12.336c-5.036-3.045-4.507-9.17-6.023-14.857
	c-0.36-0.942-0.242-1.977-0.646-2.894c-0.969-2.725-0.789-2.151-0.92-2.849c-0.704-1.323-2.13-7.051-2.13-7.051
	c-0.039-2.914,0.527-4.316,1.178-5.367c0.162-0.544,0.309-1.082,0.427-1.614c0.175-0.334,0.36-0.653,0.554-0.949
	c0.013-0.156,0.045-0.471,0.057-0.63c0.296-0.544,0.586-1.082,0.891-1.601c0.016-0.156,0.045-0.471,0.06-0.627
	c0.178-0.331,0.363-0.643,0.544-0.942c0.178-1.207,1.213-2.018,1.413-3.202c2.647-5.271,2.568-5.149,2.429-9.194
	c-0.574-1.31-0.187-8.446-0.85-10.257c-1.062-7.158-0.262-5.311,0.319-11.066c2.044-20.264,3.066-15.584,6.045-29.852
	c0.121-0.019,0.366-0.057,0.487-0.073c-0.509-1.006,0.185-2.025,0.115-3.056c1.34-1.166,1.77-0.705,5.587-2.999
	c0.786-0.563,1.308-1.439,2.184-1.881c2.203-1.022,1.202-2.221,1.484-3.734c0.882-4.021,1.283-8.15,2.493-12.094
	c1.909-5.42,6.275-23.37,6.275-23.37c2.615-6.979,12.732-41.232,12.779-41.551c0.223-2.541-0.226-5.119,0.325-7.625
	c1.207-9.307,5.409-14.239,6.042-19.088c0.975-11.157,4.971-20.35,5.441-25.478c0.121-3.601,0.739-7.153,1.433-10.681
	c12.905-91.418-15.021-52.537,45.149-267.488c28.232-95.01,28.231-76.67,28.231-147.83c-0.383-5.146-2.2-10.136-1.105-15.222
	c2.152-9.994-3.252-21.29-2.728-33.281c-0.27-0.446-2.002-20.593-0.204-28.047c1.501-2.589-0.298-7.552-0.758-8.414
	c-1.077-2.022-0.493-3.015-2.022-11.032c-6.28-32.936-24.069-44.555-28.973-90.582c-3.369-31.62,8.25-99.375,10.936-102.948
	c0.026-2.94,1.366-6.063,1.914-8.95c0.622-3.281,1.157-6.579,1.602-9.888c0.286-2.124,0.047-5.173,0.843-7.141
	c5.078-12.564,0.205-9.557,4.781-15.95c1.617-2.259,2.499-4.508,5.2-13.298c10.934-35.592,5.94-44.242,16.587-59.918
	c12.547-18.473,6.679-10.291,15.437-31.802c0.127-0.326,13.973-36.922,21.767-50.3c24.506-42.061,46.339-138.174,46.401-139.953
	c0.456-13.09,2.872-25.271,6.93-37.801c0.506-1.563-0.083-3.247,0.35-4.829C647.23,247.54,645.799,242.8,643.101,240.292z
	 M419.736,1099.344c-5.113,38.433-7.535,69.089-7.535,69.089c-0.481,0.134-0.939-0.15-1.372-0.286
	c-5.43-2.537-5.604-2.003-18.999-2.066c-1.694,0.067-3.435-0.124-5.068,0.417c-16.455,5.228-44.315-8.716-53.079-11.343
	c-0.134-0.105-0.398-0.309-0.528-0.411c-2.437-0.85-7.172-3.04-7.691-3.381c-1.253-1.967-0.314-7.149-3.986-7.258
	c-1.098-0.064-2.213,0.159-3.289-0.118c-3.425-0.923-6.94-2.209-9.452-4.82c-3.086-3.061-5.337,0.231-13.501-5.049
	c-2.413-1.633-5.348-2.139-7.851-3.588c-1.464-0.71-2.703-1.792-4.177-2.474c-9.983-4.721-7.13-5.39-12.18-6.981
	c-1.277-0.366-2.187-1.356-3.18-2.158c-2.548-2.183-3.777-0.451-7.819-3.712c-1.435-1.588-1.797-4.419-6.294-5.161
	c-2.157-0.322-4.511-3.13-11.352-7.433c-2.429-1.439-1.129-1.476-12.333-7.726c-7.355-4.614-13.525-7.04-14.784-8.452
	c-3.341-3.672-5.83-2.504-8.131-3.629c-12.791-5.953-12.54-5.912-12.301-6.666c0.688-0.914,1.735-1.452,2.572-2.203
	c11.595-9.971,9.891-9.873,30.412-21.476c89.436-46.105,90.023-62.495,157.049-90.593c11.511-5.492,32.822,21.002,35.789,48.319
	C421.57,1015.78,422.829,1078.163,419.736,1099.344z M568.585,340.503c-16.762,52.554-13.521,47.915-36.964,75.936
	c-0.307,0.319-32.811,38.701-39.058,48.253c-2.146,3.357-7.81,1.768-9.025,1.528c-0.528-0.057-0.837-0.538-1.133-0.907
	c-2.202-2.993-1.458-3.308-6.469-5.746c-0.987-0.519-1.862-1.264-2.948-1.563c-1.089-0.286-2.279-0.357-3.199-1.066
	c-1.888-1.652-4.517-1.942-6.574-3.308c-1.044-0.592-2.416-0.025-3.378-0.793c-7.736-6.172-13.986-17.354-15.822-25.828
	c-2.734-8.233,2.952-34.661,3.273-42.328c1.648-0.812,3.132-3.482,3.632-4.011c2.804-2.016,4.558-6.093,5.781-9.214
	c1.841-4.698,2.309-9.576,2.574-14.565c0.046-0.863,0.642-0.864,0.72-0.546c-0.067,2.404,5.046,0.417,6.155-0.576
	c3.595-3.22,4.819-4.897,4.728-11.585c-0.369-3.951,0.767-7.866,0.417-11.817c-0.108-0.879,0.509-1.639,0.478-2.515
	c-0.076-1.913,0.509-3.807,0.111-5.708c-0.033-1.865-1.629-4.024-2.275-5.795c-0.829-2.274-1.51-4.601-2.037-6.963
	c0.116,0.007,0.233,0.014,0.349,0.021c-0.66-2.545-1.319-5.09-1.979-7.634c-0.271-0.041-0.543-0.082-0.814-0.123
	c-0.484-1.969-0.969-3.937-1.453-5.906c0.269-0.001,0.538-0.002,0.806-0.004c-0.552-0.047-1.85-5.31-2.137-6.023
	c-1.252-3.117-2.238-6.243-2.664-9.589c0.463-0.102,0.926-0.205,1.389-0.307c-0.968-4.143-3.366-7.938-6.693-10.591
	c0.493-0.565,1.594-0.312,1.791,0.411c0.521-0.228,1.042-0.455,1.563-0.683c-1.893-2.028-3.431-4.385-4.535-6.93
	c-1.982-4.567,0.331-2.979,0.416-3.859c0.055-0.571-0.746-0.734-0.794-1.128c-0.13-1.041-1.2-1.394-1.948-1.91
	c-1.721-2.734-5.493-4.693-7.233-6.571c-0.958-0.328-2.066-0.494-2.738-1.321c-2.111-1.92-5.294-1.522-7.459-3.333
	c-2.944-1.983-9.128-1.418-11.165-2.913c-0.318-0.068-5.586-2.37-10.146-1.187c-2.009-0.223-4.037,0.347-5.995,0.805
	c-0.105,0.137-0.312,0.414-0.417,0.554c-0.166-0.006-0.5-0.019-0.665-0.025c-0.882-0.914-2.041-1.601-3.33-1.665
	c-1.394-0.099-2.741-0.914-4.145-0.43c-1.668,0.548-3.566-0.051-5.097,0.926c-1.165,0.637-2.531-0.105-3.712,0.36
	c-2.905,1.308-6.957,1.61-10.092,2.378c-0.732,1.708-2.606,2.853-4.46,2.726c-1.667,1.42-3.334,2.841-5.002,4.261
	c-1.802,3.361-6.508,6.937-9.218,11.826c-0.201,0.363-2.416,5.252-2.36,5.66c0.121,0.888,1.497,1.111-0.267,3.455
	c-2.684,3.569-7.015,11.878-2.559,10.454c0.092,0.302,0.048,0.564,0.035,0.889c0.188,0.016,0.563,0.051,0.751,0.067
	c-0.121,1.964-1.627,3.375-2.114,5.211c-0.204,0.888-1.028,1.401-1.394,2.206c-0.14,0.268-0.353,0.462-0.634,0.586
	c-0.169,0.783-0.347,1.563-0.452,2.359c-0.146,0.127-0.443,0.382-0.589,0.506c-0.022,0.414-0.041,0.831-0.051,1.251
	c0.271-0.013,0.812-0.038,1.082-0.054c-0.076,1.14-0.888,2.018-1.143,3.104c-0.401,1.652-0.366,3.413-1.038,4.998
	c-0.245,0.7-0.111,1.461-0.229,2.187c-0.739,1.901-0.624,3.989-1.146,5.95c-0.462,1.662-0.392,3.397-0.398,5.103
	c0.07,0.678-0.719,0.984-0.866,1.582c0.443,1.566,0.092,3.193,0.175,4.794c-0.175,0.318-5.807,4.754-5.151,12.409
	c0.115,1.054,0.439,2.079,0.446,3.145c0.016,1.223-0.14,2.49,0.328,3.658c1.569,4.178-0.959,10.229,3.779,15.841
	c1.27,0.955,2.356,2.248,3.941,2.703c3.193,0.755,6.609,0.669,9.71-0.452c0.449,0.458,0.831,0.981,1.182,1.528
	c3.005-0.05,0.093,3.292,6.276,15.474c0.416,0.82,0.793,1.78,1.345,2.519c0.637,0.854,1.361,1.298,1.551,2.444
	c0.33,1.989-0.874,4.754-0.261,9.24c0,0,3.808,13.698,5.207,21.684c1.179,6.732,1.387,4.128-0.856,19.139
	c-1.157,7.739-4.208,15.429-6.812,21.733c-4,7.617-4.597,3.866-6.816,5.285c-0.844,0.506-1.786,0.777-2.731,1
	c-0.7,0.71-1.687,0.942-2.572,1.324c-0.767,0.401-1.413,0.99-2.06,1.557c-2.065-0.411-1.217-1.227-7.188,2.448
	c-1.29,0.702-2.365,1.715-3.343,2.797c-0.547,0.606-1.136,1.758-1.964,2.021c-0.93,0.295-2.087-0.255-3.107-0.036
	c-1.947,0.417-4.102,2.354-5.746,0.56c-2.238-2.442-5.131-8.255-9.996-14.18c-2.544-2.687-4.794-5.625-7.313-8.325
	c-2.667-3.139-10.614-9.759-18.035-17.264c-36.623-37.041-22.243-13.67-43.082-69.003c-10.607-29.216-21.158-44.336-19.872-57.466
	c4.059-16.331,60.614-60.437,73.826-69.99c16.997-12.217,88.014-52.031,88.333-52.152c0.188-0.013,0.567-0.041,0.758-0.054
	c1.197-1.442,1.079-3.543,2.365-4.966c0.191-0.048,0.57-0.15,0.758-0.201c0.42-1.184,1.856-1.156,2.887-1.353
	c0.484-0.541,0.926-1.121,1.363-1.706c1.183,1.267,1.367,2.913,5.24,2.913c0.022,0.185,0.07,0.557,0.092,0.745
	c0.197,0.067,0.592,0.207,0.793,0.274c13.108,18.117,84.333,27.734,160.962,92.137C593.09,289.701,584.008,290.652,568.585,340.503z
	"/>
</svg>
